<svg width="222" height="165" viewBox="0 0 222 165" fill="none" xmlns="http://www.w3.org/2000/svg">
<path d="M0 161.35C0 163.06 1.4 164.46 3.11 164.46H217.82C219.54 164.46 220.94 163.06 220.94 161.35C220.94 159.64 219.54 158.24 217.82 158.24H211.56V137.64C213.37 137.31 215.11 136.54 216.63 135.35C219.6 133.02 221.22 129.52 221.06 125.74C219.69 92.69 208.02 80.26 198.43 75.65C193.96 72.65 186.56 70.93 180.77 70.6L180.93 70.38C181.54 69.55 181.48 68.45 180.79 67.69C180.09 66.93 178.99 66.77 178.11 67.31L173.68 70.02L169.71 57.14C171.03 54.45 171.79 51.44 171.79 48.24V46.34C172.2 46.34 172.57 46.34 172.91 46.35C173.18 46.35 173.43 46.35 173.67 46.35C174.73 46.35 175.53 46.25 176.14 45.65C176.97 44.85 177.06 43.51 177.06 40.86C177.06 38.05 176.17 34.29 174.82 31.32L178.5 30.26C179.03 30.1 179.34 29.55 179.18 29.02C179.03 28.49 178.48 28.18 177.94 28.33L171.79 30.12V28.41C171.79 26.39 171.5 24.43 170.93 22.54C172.05 22.64 173.19 22.75 174.38 22.88L177.42 23.08C177.42 23.08 187.06 20.44 177.42 13.47C174.86 11.61 173.33 10.07 172.03 9.21003C171.01 8.01003 169.88 6.66003 168.64 5.15003C165.26 1.06003 162.2 -0.619968 159.53 0.190032C156.09 1.22003 154.46 6.07003 153.74 9.36003C151.92 6.60003 148.13 2.64003 140.86 1.39003C133.61 0.150031 127.16 2.84003 121.68 9.37003C121.32 9.80003 121.38 10.43 121.8 10.78C122.23 11.14 122.86 11.08 123.21 10.66C128.2 4.71003 134.03 2.25003 140.52 3.36003C147.89 4.63003 151.27 9.01003 152.57 11.33C150.63 13.37 147.63 13.92 142.55 9.30003C137.04 4.31003 127.81 10.35 123.98 15.75C123.64 16.23 123.33 16.75 123.2 17.33C122.83 19.04 124.28 20.71 125.94 21.23C127.61 21.76 129.41 21.43 131.12 21.1C129.12 21.91 127.13 22.73 125.13 23.54C124.61 23.75 124.04 24.01 123.83 24.53C123.57 25.17 124.02 25.93 124.64 26.24C125.26 26.54 125.98 26.52 126.67 26.46C127.31 26.41 127.95 26.35 128.58 26.28C130.24 26.09 131.96 26.04 133.7 26.01C133.71 26.28 133.7 26.55 133.72 26.82C132.31 28.28 131.44 30.27 131.44 32.45C131.44 35.43 133.05 38.04 135.44 39.46L136.7 48.37C138.11 58.3 139.57 68.56 151.46 68.56C151.65 68.56 151.84 68.54 152.03 68.53V71.76L146.99 71.09C146.08 70.96 145.24 71.46 144.92 72.33C144.6 73.2 144.9 74.12 145.68 74.63L146.35 75.07C144.18 76.25 140.7 78.19 137.06 80.22C132.64 82.67 128.11 85.19 125.68 86.51L124.35 81.92C124.23 81.49 123.84 81.19 123.39 81.19H89.3C88.99 81.19 88.69 81.34 88.51 81.59C88.32 81.84 88.26 82.17 88.34 82.47L94.39 103.41C94.2 103.64 94.01 103.87 93.82 104.1C90.27 108.48 85.85 113.94 88.07 120.29C89.73 125.08 94.71 126.41 97.53 126.78C97.91 126.84 98.27 126.85 98.57 126.85H101.07L101.31 127.45C101.32 127.46 101.32 127.47 101.33 127.49L102.11 130.23C102.24 130.66 102.63 130.96 103.07 130.96H131.98V158.23H3.11C1.4 158.23 0 159.62 0 161.34V161.35ZM135.02 36.58C134.05 35.48 133.44 34.04 133.44 32.46C133.44 31.51 133.67 30.6 134.06 29.79L135.02 36.58ZM171.79 32.21L172.88 31.89C174.19 34.65 175.06 38.23 175.06 40.87C175.06 41.79 175.06 43.93 174.74 44.24C174.59 44.38 173.72 44.37 172.95 44.35C172.6 44.34 172.22 44.34 171.79 44.34V32.21ZM95.36 115.97C95.36 113.59 96.14 111.35 97.62 109.48C97.63 109.46 97.64 109.43 97.65 109.4H97.66L100.99 106.07C101 106.06 101.02 106.05 101.03 106.03C101.04 106.03 101.04 106.02 101.05 106.01C101.06 106 101.07 105.99 101.09 105.98L103.65 103.4C103.81 103.24 104.01 103.11 104.23 103.03C104.85 102.79 105.56 102.93 106.03 103.41L106.16 103.54C106.82 104.19 106.82 105.26 106.16 105.91L102.77 109.31C102.77 109.31 102.71 109.4 102.67 109.45C102.63 109.5 102.59 109.55 102.56 109.61C102.54 109.67 102.53 109.73 102.52 109.8C102.5 109.86 102.48 109.92 102.48 109.98C102.48 110.05 102.48 110.11 102.5 110.17C102.52 110.23 102.52 110.3 102.54 110.36C102.56 110.42 102.61 110.47 102.64 110.53C102.67 110.58 102.69 110.63 102.73 110.68C102.73 110.68 102.73 110.69 102.75 110.69C102.76 110.7 102.76 110.71 102.77 110.72C102.83 110.78 102.9 110.82 102.97 110.86C103.01 110.88 103.04 110.91 103.09 110.93C103.21 110.98 103.34 111.01 103.47 111.01C103.6 111.01 103.72 110.99 103.84 110.94C103.87 110.93 103.91 110.9 103.94 110.88C104.01 110.84 104.08 110.81 104.14 110.76L109.74 105.8C110.47 105.08 111.53 105.13 112.17 105.76L112.85 106.45L107.64 111.31C107.24 111.68 107.21 112.32 107.59 112.72C107.79 112.93 108.06 113.04 108.32 113.04C108.58 113.04 108.81 112.95 109 112.77L115.17 107.02C115.17 107.02 115.2 106.97 115.22 106.95L116.41 105.76C117.05 105.13 118.15 105.13 118.79 105.76L118.93 105.91C119.57 106.54 119.58 107.57 118.97 108.23C118.96 108.24 118.94 108.24 118.92 108.26L112.76 114C112.36 114.38 112.33 115.01 112.71 115.42C112.91 115.63 113.17 115.74 113.44 115.74C113.69 115.74 113.93 115.65 114.12 115.47L119.6 110.36L119.85 110.61C120.17 110.94 120.35 111.36 120.35 111.81C120.35 112.26 120.18 112.67 119.86 112.99L108.05 123.12C108.05 123.12 107.99 123.17 107.97 123.2C106.54 124.41 104.89 124.7 101.81 124.85C97.77 124.25 95.36 119.88 95.36 115.97ZM115.38 101.42L115.72 102.48L115.62 102.81L115.05 103.22C114.62 103.53 114.52 104.11 114.79 104.55L114.29 105.05L113.58 104.35C112.26 103.02 110.01 102.97 108.6 104.17C108.48 103.42 108.15 102.7 107.57 102.12L107.44 101.99C106.83 101.38 106.04 101.02 105.21 100.94C105.21 100.74 105.2 100.54 105.14 100.35L104.79 99.28L104.9 98.96L105.77 98.32C106.11 98.07 106.34 97.74 106.45 97.38L106.78 96.39L107.05 96.18H108.13C108.48 96.18 108.81 96.08 109.16 95.87L110.09 95.19H110.43L111.31 95.83C111.57 96 111.94 96.18 112.39 96.18H113.46L113.74 96.39L114.08 97.42C114.21 97.78 114.43 98.09 114.73 98.31L115.62 98.96L115.72 99.28L115.39 100.32C115.28 100.69 115.28 101.08 115.38 101.42ZM95.06 105.76L95.85 108.5C94.22 110.68 93.36 113.25 93.36 115.97C93.36 119.13 94.71 122.54 97.1 124.7C94.67 124.27 91.15 123.07 89.95 119.64C88.17 114.5 91.74 109.87 95.06 105.76ZM130.75 111.32L135.85 128.97H103.83L103.21 126.81C103.21 126.79 103.2 126.78 103.2 126.77C105.91 126.56 107.65 126.09 109.32 124.67C109.33 124.67 109.36 124.63 109.39 124.61L121.22 114.46C121.97 113.71 122.35 112.78 122.35 111.8C122.35 110.82 121.96 109.89 121.26 109.2L120.94 108.88C121.72 107.48 121.53 105.68 120.34 104.49L120.2 104.34C119.5 103.64 118.52 103.3 117.56 103.31L117.73 102.78C117.79 102.58 117.79 102.36 117.72 102.16L117.3 100.88L117.72 99.59C117.79 99.39 117.79 99.17 117.72 98.97L117.42 98.03C117.35 97.83 117.23 97.66 117.06 97.53L115.96 96.73L115.54 95.46C115.48 95.26 115.35 95.09 115.19 94.97L114.39 94.38C114.21 94.25 114.01 94.18 113.79 94.18H112.39L111.34 93.38C111.17 93.26 110.96 93.19 110.75 93.19H109.76C109.55 93.19 109.35 93.26 109.18 93.39L108.04 94.21L106.73 94.18C106.51 94.18 106.3 94.25 106.13 94.38L105.33 94.97C105.16 95.09 105.04 95.26 104.97 95.46L104.56 96.73L103.46 97.53C103.3 97.65 103.17 97.82 103.1 98.02L102.79 98.96C102.72 99.17 102.72 99.39 102.78 99.6L103.21 100.88L103.04 101.4C102.75 101.57 102.47 101.76 102.24 101.99L99.74 104.5C99.74 104.5 99.68 104.55 99.65 104.58L97.44 106.79L90.63 83.2H122.64L130.75 111.32ZM138.14 129.69L133.41 113.31L142.02 118.66C142.18 118.76 142.36 118.81 142.55 118.81H142.59L206.21 137.36C207.31 137.67 208.42 137.83 209.51 137.83H209.56V158.24H133.98V130.97H137.17C137.49 130.97 137.78 130.82 137.97 130.57C138.16 130.32 138.22 129.99 138.14 129.69ZM126.5 89.35C130.6 89.78 136.17 91.18 141.55 96.56V116.01L132.58 110.45L126.5 89.35ZM145.79 32.46C145.79 35.87 143.02 38.64 139.62 38.64C138.79 38.64 138 38.47 137.27 38.17L135.87 28.28C135.84 28.06 135.83 27.84 135.8 27.62C136.69 26.92 137.76 26.46 138.94 26.33C139 26.34 139.05 26.37 139.11 26.37C139.23 26.37 139.35 26.34 139.46 26.3C139.52 26.3 139.57 26.29 139.62 26.29C143.02 26.29 145.79 29.06 145.79 32.46ZM168.96 8.68003C168.61 8.79003 168.24 8.96003 167.83 9.19003C165.53 10.51 160.45 5.94003 157.8 4.17003C158.43 3.16003 159.2 2.39003 160.11 2.11003C162.37 1.44003 165.16 4.09003 167.1 6.44003C167.76 7.24003 168.38 7.98003 168.96 8.68003ZM169.79 30.71L166.46 31.67C165.83 27.78 162.46 24.79 158.4 24.79C154.34 24.79 150.85 27.88 150.31 31.86L147.74 31.57C147.43 28.77 145.71 26.4 143.3 25.18C143.39 25.16 143.48 25.13 143.56 25.1C144.38 25.18 145.18 25.43 145.92 25.87C146.39 26.16 147.01 26 147.29 25.52C147.57 25.05 147.41 24.43 146.94 24.15C146.8 24.07 146.66 24.02 146.52 23.94C146.88 23.75 147.23 23.54 147.57 23.31C148.88 22.42 151.73 21.94 155.91 21.84C155.69 22.05 155.56 22.34 155.59 22.67C155.65 23.22 156.14 23.61 156.7 23.55C158.19 23.38 159.66 23.81 160.83 24.74C161.02 24.89 161.24 24.96 161.46 24.96C161.75 24.96 162.04 24.83 162.24 24.59C162.58 24.16 162.51 23.53 162.08 23.18C161.32 22.57 160.46 22.12 159.55 21.85C162.24 21.91 165.31 22.08 168.76 22.36C169.44 24.3 169.79 26.33 169.79 28.42V30.71ZM158.4 26.79C161.8 26.79 164.57 29.56 164.57 32.97C164.57 36.38 161.8 39.14 158.4 39.14C155 39.14 152.22 36.37 152.22 32.97C152.22 29.57 154.99 26.79 158.4 26.79ZM151.46 66.57C141.99 66.57 140.31 59.59 138.68 48.1L137.58 40.37C138.24 40.54 138.91 40.64 139.62 40.64C143.75 40.64 147.16 37.56 147.71 33.58L150.27 33.87C150.72 37.95 154.19 41.14 158.4 41.14C162.61 41.14 166.14 37.88 166.53 33.73L169.79 32.79V48.24C169.79 58.35 161.57 66.57 151.46 66.57ZM206.78 135.44L143.55 117V97.5L166.19 104.42C166.29 104.45 166.38 104.46 166.48 104.46C166.91 104.46 167.31 104.19 167.44 103.76C167.6 103.23 167.3 102.67 166.77 102.51L143.06 95.26C137.77 89.92 132.3 88.16 128.01 87.52C130.58 86.11 134.35 84.02 138.03 81.97C142.27 79.62 146.28 77.38 148.24 76.32L162.17 85.43C162.33 85.54 162.53 85.59 162.71 85.59C163.04 85.59 163.36 85.43 163.55 85.14C163.85 84.68 163.72 84.06 163.26 83.76L147 73.12L152.9 73.9C152.9 73.9 152.94 73.89 152.96 73.9C152.99 73.9 153.01 73.91 153.03 73.91C153.08 73.91 153.12 73.89 153.16 73.88C153.23 73.87 153.29 73.87 153.35 73.84C153.42 73.82 153.47 73.79 153.52 73.76C153.58 73.73 153.63 73.7 153.68 73.65C153.73 73.61 153.77 73.56 153.81 73.51C153.85 73.46 153.88 73.41 153.91 73.36C153.94 73.3 153.96 73.23 153.98 73.17C153.98 73.12 154.01 73.09 154.02 73.04C154.02 73.02 154.01 73 154.02 72.97C154.02 72.95 154.03 72.93 154.03 72.91V68.39C159.99 67.63 165.15 64.3 168.35 59.53L172.15 71.84C172.15 71.84 172.19 71.94 172.22 71.99C172.23 72.01 172.23 72.04 172.25 72.06C172.25 72.07 172.26 72.08 172.27 72.09C172.34 72.19 172.42 72.28 172.51 72.35C172.53 72.35 172.54 72.35 172.55 72.37C172.64 72.43 172.73 72.47 172.83 72.5C172.87 72.51 172.91 72.51 172.96 72.52C173 72.53 173.05 72.54 173.1 72.54C173.13 72.54 173.16 72.54 173.19 72.54C173.23 72.54 173.27 72.53 173.3 72.52C173.34 72.52 173.37 72.52 173.4 72.51C173.44 72.5 173.47 72.47 173.51 72.45C173.54 72.43 173.59 72.43 173.62 72.41L179.16 69.02C179.16 69.02 179.24 68.97 179.31 69.05C179.38 69.12 179.35 69.16 179.32 69.21L168.37 84.01C168.05 84.45 168.14 85.08 168.58 85.41C168.76 85.54 168.97 85.6 169.18 85.6C169.48 85.6 169.79 85.46 169.98 85.2L179.33 72.56C184.87 72.66 192.9 74.32 197.36 77.35C197.38 77.37 197.41 77.37 197.44 77.39C197.46 77.4 197.47 77.42 197.49 77.43C214.86 85.7 218.46 111.31 219.06 125.83C219.19 128.96 217.86 131.86 215.39 133.79C212.92 135.72 209.78 136.32 206.78 135.45V135.44ZM2 161.35C2 160.74 2.5 160.24 3.11 160.24H217.82C218.44 160.24 218.94 160.74 218.94 161.35C218.94 161.96 218.44 162.46 217.82 162.46H3.11C2.5 162.46 2 161.96 2 161.35Z" fill="#021A1C"/>
<path d="M89.95 119.64C91.15 123.07 94.67 124.27 97.1 124.7C94.71 122.54 93.36 119.13 93.36 115.97C93.36 113.25 94.22 110.68 95.85 108.5L95.06 105.76C91.74 109.87 88.17 114.5 89.95 119.64Z" fill="#021A1C"/>
<path d="M137.17 130.97H133.98V158.24H209.56V137.83H209.51C208.42 137.83 207.31 137.67 206.21 137.36L142.59 118.81H142.55C142.36 118.81 142.18 118.76 142.02 118.66L133.41 113.31L138.14 129.69C138.22 129.99 138.16 130.32 137.97 130.57C137.78 130.82 137.49 130.97 137.17 130.97Z" fill="#021A1C"/>
<path d="M167.44 103.76C167.31 104.19 166.91 104.46 166.48 104.46C166.38 104.46 166.29 104.45 166.19 104.42L143.55 97.5V117L206.78 135.44C209.78 136.31 212.92 135.71 215.39 133.78C217.86 131.85 219.19 128.95 219.06 125.82C218.46 111.3 214.86 85.69 197.49 77.42C197.47 77.42 197.46 77.39 197.44 77.38C197.41 77.36 197.38 77.36 197.36 77.34C192.9 74.31 184.87 72.65 179.33 72.55L169.98 85.19C169.79 85.45 169.48 85.59 169.18 85.59C168.97 85.59 168.76 85.53 168.58 85.4C168.14 85.07 168.05 84.44 168.37 84L179.32 69.2C179.32 69.2 179.38 69.11 179.31 69.04C179.24 68.96 179.2 68.99 179.16 69.01L173.62 72.4C173.62 72.4 173.54 72.42 173.51 72.44C173.47 72.46 173.44 72.49 173.4 72.5C173.37 72.51 173.34 72.51 173.3 72.51C173.27 72.52 173.23 72.53 173.19 72.53C173.16 72.53 173.13 72.53 173.1 72.53C173.05 72.53 173 72.53 172.96 72.51C172.91 72.5 172.87 72.5 172.83 72.49C172.73 72.46 172.64 72.42 172.55 72.36C172.55 72.35 172.53 72.35 172.51 72.34C172.42 72.27 172.34 72.18 172.27 72.08C172.26 72.07 172.25 72.06 172.25 72.05C172.23 72.03 172.23 72 172.22 71.98C172.19 71.93 172.16 71.88 172.15 71.83L168.35 59.52C165.15 64.29 159.99 67.62 154.03 68.38V72.9C154.03 72.9 154.02 72.94 154.02 72.96C154.01 72.99 154.02 73.01 154.02 73.03C154.01 73.08 153.99 73.11 153.98 73.16C153.96 73.22 153.94 73.29 153.91 73.35C153.88 73.4 153.85 73.45 153.81 73.5C153.77 73.55 153.73 73.6 153.68 73.64C153.63 73.69 153.58 73.72 153.52 73.75C153.47 73.78 153.42 73.81 153.35 73.83C153.29 73.86 153.23 73.86 153.16 73.87C153.12 73.88 153.08 73.9 153.03 73.9C153.01 73.9 152.99 73.89 152.96 73.89C152.94 73.88 152.92 73.89 152.9 73.89L147 73.11L163.26 83.75C163.72 84.05 163.85 84.67 163.55 85.13C163.36 85.42 163.04 85.58 162.71 85.58C162.53 85.58 162.33 85.53 162.17 85.42L148.24 76.31C146.28 77.37 142.27 79.61 138.03 81.96C134.35 84.01 130.58 86.1 128.01 87.51C132.3 88.15 137.77 89.91 143.06 95.25L166.77 102.5C167.3 102.66 167.6 103.22 167.44 103.75V103.76ZM190.35 105.08C192.37 99.91 192.8 94.29 191.58 88.85C191.46 88.31 191.8 87.78 192.34 87.66C192.87 87.54 193.41 87.88 193.53 88.42C194.84 94.25 194.38 100.26 192.21 105.81C192.05 106.2 191.68 106.44 191.28 106.44C191.16 106.44 191.03 106.42 190.91 106.37C190.4 106.17 190.14 105.59 190.35 105.08Z" fill="#021A1C"/>
<path d="M145.83 50.2L148.07 51.23C148.57 51.46 148.79 52.06 148.56 52.56C148.39 52.93 148.03 53.14 147.65 53.14C147.51 53.14 147.37 53.11 147.23 53.05L144.07 51.59C143.83 51.48 143.64 51.27 143.55 51.02C143.46 50.77 143.47 50.49 143.59 50.25L147.39 42.35C147.63 41.85 148.23 41.64 148.72 41.88C149.22 42.12 149.43 42.72 149.19 43.21L145.83 50.19V50.2Z" fill="#021A1C"/>
<path d="M153.86 57.3801C152.34 58.8301 150.36 59.6001 148.34 59.6001C147.27 59.6001 146.19 59.3801 145.16 58.9401C144.65 58.7201 144.42 58.1301 144.64 57.6301C144.86 57.1201 145.45 56.8901 145.95 57.1101C148.17 58.0701 150.73 57.6101 152.47 55.9401C153.16 55.2801 153.67 54.4901 153.99 53.5901C154.17 53.0701 154.74 52.7901 155.26 52.9801C155.78 53.1601 156.05 53.7301 155.87 54.2501C155.45 55.4501 154.77 56.5001 153.85 57.3801H153.86Z" fill="#021A1C"/>
<path d="M143.77 32.9701C143.77 30.2701 142.59 28.3101 140.96 28.3101C139.33 28.3101 138.15 30.2701 138.15 32.9701C138.15 35.6701 139.33 37.6301 140.96 37.6301C142.59 37.6301 143.77 35.6701 143.77 32.9701ZM141.77 32.9701C141.77 34.6301 141.17 35.5601 140.94 35.6401C140.75 35.5701 140.15 34.6301 140.15 32.9701C140.15 31.3101 140.75 30.3801 140.98 30.3001C141.17 30.3701 141.77 31.3101 141.77 32.9701Z" fill="#021A1C"/>
<path d="M153.77 32.9701C153.77 35.6701 154.95 37.6301 156.58 37.6301C158.21 37.6301 159.39 35.6701 159.39 32.9701C159.39 30.2701 158.21 28.3101 156.58 28.3101C154.95 28.3101 153.77 30.2701 153.77 32.9701ZM155.77 32.9701C155.77 31.3101 156.37 30.3801 156.6 30.3001C156.79 30.3701 157.39 31.3101 157.39 32.9701C157.39 34.6301 156.79 35.5601 156.56 35.6401C156.37 35.5701 155.77 34.6301 155.77 32.9701Z" fill="#021A1C"/>
<path d="M112.43 100.88C112.43 99.6901 111.46 98.7101 110.26 98.7101C109.06 98.7101 108.09 99.6801 108.09 100.88C108.09 102.08 109.06 103.05 110.26 103.05C111.46 103.05 112.43 102.08 112.43 100.88ZM110.43 100.88C110.43 101.05 110.1 101.1 110.1 100.88C110.1 100.8 110.18 100.71 110.27 100.71C110.37 100.71 110.44 100.8 110.44 100.88H110.43Z" fill="#021A1C"/>
<path d="M3.94001 57.78L27.31 65.95C27.42 65.98 27.53 66 27.64 66C27.79 66 27.94 65.97 28.07 65.9C28.31 65.79 28.49 65.58 28.58 65.33L34.62 48.04C34.71 47.79 34.69 47.52 34.58 47.28C34.46 47.04 34.26 46.86 34.01 46.77L25.1 43.66C25.58 43.1 25.89 42.39 25.89 41.6C25.89 39.84 24.46 38.42 22.7 38.42C20.94 38.42 19.52 39.84 19.52 41.6C19.52 41.64 19.53 41.68 19.54 41.72L10.64 38.61C10.12 38.43 9.55001 38.7 9.37001 39.22L3.33001 56.51C3.15001 57.03 3.42001 57.6 3.94001 57.78ZM23.89 41.6C23.89 42.25 23.36 42.78 22.7 42.78C22.59 42.78 22.48 42.74 22.38 42.71L22.19 42.64C21.8 42.45 21.52 42.06 21.52 41.6C21.52 40.94 22.05 40.42 22.7 40.42C23.35 40.42 23.89 40.94 23.89 41.6ZM5.55001 56.22L10.92 40.83L21.39 44.48C21.54 44.55 21.7 44.6 21.87 44.65L32.4 48.33L27.02 63.73L5.55001 56.22Z" fill="#021A1C"/>
<path d="M5.55005 56.2201L27.0201 63.7301L32.4001 48.3301L21.87 44.6501C21.7 44.6001 21.54 44.5501 21.39 44.4801L10.92 40.8301L5.55005 56.2201Z" fill="#F09D38"/>
<path d="M45.2299 105.15L52.5399 130.69C52.6099 130.95 52.7799 131.16 53.0099 131.29C53.1599 131.38 53.3299 131.42 53.4999 131.42C53.5899 131.42 53.6799 131.42 53.7699 131.38L79.3199 124.08C79.8499 123.92 80.1599 123.37 79.9999 122.84L72.6999 97.29C72.6299 97.04 72.4499 96.83 72.2199 96.7C71.9899 96.57 71.7199 96.54 71.4599 96.61L61.5799 99.43C61.5799 99.43 61.5999 99.34 61.5999 99.3C61.5999 97.54 60.1699 96.12 58.4099 96.12C56.6499 96.12 55.2399 97.54 55.2399 99.3C55.2399 99.96 55.4399 100.58 55.7899 101.09L45.9199 103.91C45.3899 104.07 45.0799 104.62 45.2299 105.15ZM59.5999 99.3C59.5999 99.61 59.4699 99.88 59.2799 100.09L58.1299 100.42C57.6199 100.29 57.2399 99.85 57.2399 99.3C57.2399 98.65 57.7599 98.12 58.4099 98.12C59.0599 98.12 59.5999 98.65 59.5999 99.3ZM47.4299 105.56L58.2599 102.46C58.3199 102.47 58.3599 102.48 58.4099 102.48C59.0899 102.48 59.7199 102.26 60.2299 101.9L71.0499 98.81L77.8099 122.43L54.1799 129.18L47.4299 105.56Z" fill="#021A1C"/>
<path d="M47.4299 105.56L54.1799 129.18L77.8099 122.43L71.0499 98.8101L60.2299 101.9C59.7199 102.26 59.0899 102.48 58.4099 102.48C58.3599 102.48 58.3199 102.48 58.2599 102.46L47.4299 105.56Z" fill="#F09D38"/>
<path d="M85.05 80.67V28.42C85.05 27.87 84.6 27.42 84.05 27.42H41.02C40.47 27.42 40.02 27.87 40.02 28.42V80.67C40.02 81.22 40.47 81.67 41.02 81.67H84.05C84.6 81.67 85.05 81.22 85.05 80.67ZM83.05 79.67H42.02V29.42H83.05V79.67Z" fill="#021A1C"/>
<path d="M49.97 38.41H75.1C75.65 38.41 76.1 38.86 76.1 39.41C76.1 39.96 75.65 40.41 75.1 40.41H49.97C49.42 40.41 48.97 39.96 48.97 39.41C48.97 38.86 49.42 38.41 49.97 38.41Z" fill="#021A1C"/>
<path d="M75.1 47.62H56.23C55.68 47.62 55.23 47.17 55.23 46.62C55.23 46.07 55.68 45.62 56.23 45.62H75.1C75.65 45.62 76.1 46.07 76.1 46.62C76.1 47.17 75.65 47.62 75.1 47.62Z" fill="#021A1C"/>
<path d="M75.1 54.8301H68.28C67.73 54.8301 67.28 54.3801 67.28 53.8301C67.28 53.2801 67.73 52.8301 68.28 52.8301H75.1C75.65 52.8301 76.1 53.2801 76.1 53.8301C76.1 54.3801 75.65 54.8301 75.1 54.8301Z" fill="#021A1C"/>
<path d="M53.8201 60.04H75.1101C75.6601 60.04 76.1101 60.49 76.1101 61.04C76.1101 61.59 75.6601 62.04 75.1101 62.04H53.8201C53.2701 62.04 52.8201 61.59 52.8201 61.04C52.8201 60.49 53.2701 60.04 53.8201 60.04Z" fill="#021A1C"/>
<path d="M58.4099 67.26H75.0999C75.6499 67.26 76.0999 67.71 76.0999 68.26C76.0999 68.81 75.6499 69.26 75.0999 69.26H58.4099C57.8599 69.26 57.4099 68.81 57.4099 68.26C57.4099 67.71 57.8599 67.26 58.4099 67.26Z" fill="#021A1C"/>
</svg>
