<svg width="221" height="174" viewBox="0 0 221 174" fill="none" xmlns="http://www.w3.org/2000/svg">
<g clip-path="url(#clip0_28_222)">
<path d="M144.53 134.95L143.77 132.63L144.31 130.99L146.28 129.55C146.53 129.37 146.72 129.11 146.82 128.82L147.57 126.5L148.97 125.48H151.41C151.72 125.48 152.03 125.38 152.28 125.2L154.25 123.77H155.98L157.95 125.2C158.21 125.38 158.51 125.48 158.82 125.48H161.26L162.66 126.5L163.41 128.82C163.51 129.11 163.7 129.37 163.95 129.55L165.92 130.99L166.46 132.63L165.7 134.95C165.61 135.25 165.61 135.57 165.7 135.86L166.46 138.18L165.92 139.83L163.95 141.26C163.7 141.45 163.51 141.7 163.41 142L162.66 144.32L161.26 145.34H158.82C158.51 145.34 158.21 145.44 157.95 145.62L155.98 147.05H154.25L152.28 145.62C152.03 145.44 151.72 145.34 151.41 145.34H148.97L147.57 144.32L146.82 142C146.72 141.7 146.53 141.45 146.28 141.26L144.31 139.83L143.77 138.18L144.53 135.86C144.62 135.57 144.62 135.25 144.53 134.95ZM146.37 135.78L145.75 137.7L146.19 139.06L147.82 140.24C148.03 140.39 148.18 140.61 148.26 140.85L148.89 142.77L150.04 143.61H152.06C152.31 143.61 152.56 143.69 152.77 143.84L154.4 145.02H155.83L157.46 143.84C157.67 143.69 157.92 143.61 158.17 143.61H160.19L161.34 142.77L161.97 140.85C162.05 140.61 162.2 140.39 162.41 140.24L164.04 139.06L164.48 137.7L163.86 135.78C163.78 135.54 163.78 135.28 163.86 135.03L164.48 133.12L164.04 131.76L162.41 130.57C162.2 130.42 162.05 130.21 161.97 129.97L161.34 128.05L160.19 127.21H158.17C157.92 127.21 157.67 127.13 157.46 126.98L155.83 125.79H154.4L152.77 126.98C152.56 127.13 152.31 127.21 152.06 127.21H150.04L148.89 128.05L148.26 129.97C148.18 130.21 148.03 130.42 147.82 130.57L146.19 131.76L145.75 133.12L146.37 135.03C146.45 135.28 146.45 135.54 146.37 135.78Z" fill="#021A1C"/>
<path d="M155.12 132.21C156.88 132.21 158.32 133.64 158.32 135.41C158.32 137.18 156.88 138.61 155.12 138.61C153.36 138.61 151.92 137.17 151.92 135.41C151.92 133.65 153.35 132.21 155.12 132.21ZM155.12 137.44C156.24 137.44 157.15 136.53 157.15 135.41C157.15 134.29 156.24 133.38 155.12 133.38C154 133.38 153.09 134.29 153.09 135.41C153.09 136.53 154 137.44 155.12 137.44Z" fill="#021A1C"/>
<path d="M161.84 54.96C161.55 53.66 161.4 52.33 161.4 50.99C161.4 42.47 167.31 35.28 175.57 33.58V3.62C175.57 1.62 177.19 0 179.19 0C181.19 0 182.81 1.62 182.81 3.62V33.58C191.08 35.28 196.99 42.47 196.99 50.99C196.99 52.32 196.84 53.65 196.54 54.95C197.86 55.2 199.08 55.85 200.05 56.82C201.32 58.09 202.02 59.79 202.02 61.6V63.04C202.02 63.59 201.57 64.04 201.02 64.04H157.36C156.81 64.04 156.36 63.59 156.36 63.04V61.6C156.36 58.3 158.72 55.55 161.84 54.96ZM158.36 62.04H200.02V61.6C200.02 60.32 199.53 59.13 198.63 58.23C197.74 57.33 196.55 56.84 195.27 56.84C194.95 56.84 194.66 56.69 194.47 56.43C194.28 56.18 194.22 55.85 194.31 55.55C194.76 54.05 194.99 52.52 194.99 50.99C194.99 43.17 189.38 36.62 181.65 35.41C181.17 35.33 180.81 34.91 180.81 34.42V3.62C180.81 2.72 180.08 2 179.19 2C178.3 2 177.57 2.72 177.57 3.62V34.42C177.57 34.91 177.21 35.33 176.72 35.41C169 36.62 163.4 43.17 163.4 50.99C163.4 52.54 163.62 54.08 164.07 55.55C164.16 55.85 164.1 56.18 163.91 56.43C163.72 56.69 163.43 56.84 163.11 56.84C160.49 56.84 158.36 58.97 158.36 61.6V62.04Z" fill="#021A1C"/>
<path d="M163.11 56.84C163.43 56.84 163.72 56.69 163.91 56.43C164.1 56.18 164.16 55.85 164.07 55.55C163.62 54.08 163.4 52.54 163.4 50.99C163.4 43.17 169 36.62 176.72 35.41C177.21 35.33 177.57 34.91 177.57 34.42V3.62C177.57 2.72 178.3 2 179.19 2C180.08 2 180.81 2.72 180.81 3.62V34.42C180.81 34.91 181.17 35.33 181.65 35.41C189.38 36.62 194.99 43.17 194.99 50.99C194.99 52.52 194.76 54.05 194.31 55.55C194.22 55.85 194.28 56.18 194.47 56.43C194.66 56.69 194.95 56.84 195.27 56.84C196.55 56.84 197.74 57.33 198.63 58.23C199.53 59.13 200.02 60.32 200.02 61.6V62.04H158.36V61.6C158.36 58.97 160.49 56.84 163.11 56.84ZM183.82 40.8C188.08 42.8 190.83 47.13 190.83 51.83C190.83 52.38 191.28 52.83 191.83 52.83C192.38 52.83 192.83 52.38 192.83 51.83C192.83 46.36 189.63 41.32 184.68 38.99C184.17 38.75 183.58 38.97 183.35 39.47C183.11 39.97 183.32 40.56 183.82 40.8Z" fill="#021A1C"/>
<path d="M170.09 68.3501C170.53 68.6801 170.61 69.3101 170.28 69.7501L165.1 76.5501C164.9 76.8101 164.6 76.9401 164.3 76.9401C164.09 76.9401 163.88 76.8701 163.7 76.7401C163.26 76.4101 163.18 75.7801 163.51 75.3401L168.69 68.5401C169.02 68.1001 169.65 68.0201 170.09 68.3501Z" fill="#021A1C"/>
<path d="M189.69 68.5401L194.87 75.3401C195.2 75.7801 195.12 76.4101 194.68 76.7401C194.5 76.8801 194.29 76.9401 194.08 76.9401C193.78 76.9401 193.48 76.8001 193.28 76.5501L188.1 69.7501C187.77 69.3101 187.85 68.6801 188.29 68.3501C188.73 68.0201 189.36 68.1001 189.69 68.5401Z" fill="#021A1C"/>
<path d="M175.3 69.58C175.85 69.64 176.25 70.13 176.19 70.68L175.33 79.19C175.28 79.71 174.84 80.09 174.34 80.09C174.31 80.09 174.27 80.09 174.24 80.09C173.69 80.03 173.29 79.54 173.35 78.99L174.21 70.48C174.27 69.93 174.75 69.54 175.31 69.59L175.3 69.58Z" fill="#021A1C"/>
<path d="M184.18 70.47L185.04 78.98C185.1 79.53 184.7 80.02 184.15 80.08C184.12 80.08 184.08 80.08 184.05 80.08C183.54 80.08 183.11 79.7 183.06 79.18L182.2 70.67C182.14 70.12 182.54 69.63 183.09 69.57C183.64 69.53 184.13 69.92 184.19 70.46L184.18 70.47Z" fill="#021A1C"/>
<path d="M3.17999 166.83H21.01V133.39C21.01 109.98 33.75 92.19 54.25 86.98C54.79 86.84 55.33 87.16 55.47 87.7C55.61 88.23 55.28 88.78 54.75 88.91C35.17 93.9 23.01 110.94 23.01 133.39V166.83H52.09C52.27 165.43 52.8 164.11 53.69 162.98C55.07 161.22 57.13 160.12 59.33 159.98L88.66 156.98C88.37 156.79 88.08 156.61 87.77 156.42C76.68 149.78 63.46 146.95 50.54 148.45C50.52 148.45 50.5 148.45 50.48 148.45C50.46 148.45 50.44 148.45 50.42 148.45C50.36 148.45 50.3 148.43 50.24 148.42C50.19 148.41 50.14 148.41 50.09 148.39C49.99 148.35 49.9 148.3 49.82 148.23C49.8 148.22 49.78 148.21 49.76 148.19C49.67 148.11 49.6 148.01 49.55 147.91C49.55 147.89 49.52 147.88 49.52 147.86C49.46 147.74 49.43 147.6 49.43 147.45C49.43 147.32 49.46 147.19 49.5 147.08C49.52 147.04 49.55 147 49.57 146.97C49.61 146.9 49.65 146.83 49.71 146.77C49.74 146.73 49.79 146.71 49.83 146.68C49.89 146.63 49.94 146.58 50.01 146.55C50.06 146.53 50.11 146.52 50.16 146.51C50.22 146.49 50.27 146.47 50.33 146.46C63.69 144.92 77.35 147.85 88.81 154.71C89.87 155.34 90.86 155.99 91.84 156.66L105.32 155.28L116.28 121.76C112.8 104.94 101.67 92.97 85.71 88.91C85.18 88.78 84.86 88.23 84.99 87.7C85.13 87.16 85.68 86.84 86.21 86.98C101.9 90.97 113.13 102.23 117.47 118.13L121.05 107.2C122.06 104.09 124.94 102.01 128.21 102.01H194.91C197.35 102.01 199.58 103.14 201.01 105.12C202.44 107.1 202.83 109.56 202.07 111.88L184.1 166.83H217.89C219.6 166.83 221 168.23 221 169.94C221 171.65 219.6 173.05 217.89 173.05H3.17999C1.45999 173.05 0.0700073 171.66 0.0700073 169.94C0.0700073 168.22 1.45999 166.83 3.17999 166.83ZM59.5 161.97C57.83 162.08 56.29 162.89 55.27 164.21C54.66 164.99 54.26 165.88 54.1 166.83H101.53L104.63 157.36L59.5 161.97ZM200.17 111.26C200.73 109.56 200.45 107.75 199.39 106.29C198.34 104.84 196.7 104.01 194.91 104.01H128.2C125.8 104.01 123.69 105.54 122.94 107.82L103.64 166.83H181.99L200.17 111.26ZM3.17999 171.05H217.89C218.5 171.05 219 170.55 219 169.94C219 169.33 218.5 168.83 217.89 168.83H149.53L52.01 168.84L22.04 168.83C22.04 168.83 22.02 168.84 22.01 168.84C22 168.84 22 168.83 21.99 168.83H3.17999C2.56 168.83 2.07001 169.33 2.07001 169.94C2.07001 170.55 2.56 171.05 3.17999 171.05Z" fill="#021A1C"/>
<path d="M122.94 107.82C123.69 105.54 125.8 104.01 128.2 104.01H194.91C196.7 104.01 198.34 104.84 199.39 106.29C200.45 107.75 200.73 109.56 200.17 111.26L181.99 166.83H103.64L122.94 107.82ZM144.53 135.86L143.77 138.18L144.31 139.83L146.28 141.26C146.53 141.45 146.72 141.7 146.82 142L147.57 144.32L148.97 145.34H151.41C151.72 145.34 152.03 145.44 152.28 145.62L154.25 147.05H155.98L157.95 145.62C158.21 145.44 158.51 145.34 158.82 145.34H161.26L162.66 144.32L163.41 142C163.51 141.7 163.7 141.45 163.95 141.26L165.92 139.83L166.46 138.18L165.7 135.86C165.61 135.57 165.61 135.25 165.7 134.95L166.46 132.63L165.92 130.99L163.95 129.55C163.7 129.37 163.51 129.11 163.41 128.82L162.66 126.5L161.26 125.48H158.82C158.51 125.48 158.21 125.38 157.95 125.2L155.98 123.77H154.25L152.28 125.2C152.03 125.38 151.72 125.48 151.41 125.48H148.97L147.57 126.5L146.82 128.82C146.72 129.11 146.53 129.37 146.28 129.55L144.31 130.99L143.77 132.63L144.53 134.95C144.62 135.25 144.62 135.57 144.53 135.86Z" fill="#7525F5"/>
<path d="M46.58 145.95C46.13 145.95 45.72 145.64 45.61 145.18C44.54 140.61 43.99 135.89 43.99 131.15C43.99 130.6 44.44 130.15 44.99 130.15C45.54 130.15 45.99 130.6 45.99 131.15C45.99 135.74 46.52 140.3 47.55 144.72C47.68 145.26 47.34 145.8 46.8 145.92C46.72 145.94 46.65 145.95 46.57 145.95H46.58Z" fill="#021A1C"/>
<path d="M75.03 66.18C74.65 66.18 74.29 65.96 74.12 65.6C73.89 65.1 74.11 64.51 74.61 64.27L76.37 63.46L73.58 57.67C73.34 57.17 73.55 56.58 74.05 56.34C74.55 56.1 75.14 56.31 75.38 56.81L78.61 63.52C78.73 63.76 78.74 64.04 78.65 64.29C78.56 64.54 78.37 64.75 78.13 64.86L75.44 66.1C75.31 66.16 75.16 66.19 75.02 66.19L75.03 66.18Z" fill="#021A1C"/>
<path d="M68.68 66.08C69.2 65.91 69.7701 66.19 69.9501 66.71C70.5801 68.6 72.27 69.91 74.26 70.06C75.05 70.12 75.8101 70 76.5301 69.7C77.0401 69.49 77.6201 69.73 77.8401 70.24C78.0501 70.75 77.8101 71.33 77.3001 71.55C76.4601 71.9 75.5501 72.08 74.6301 72.08C74.4501 72.08 74.2801 72.08 74.1001 72.06C71.3101 71.85 68.9401 70 68.0501 67.35C67.8701 66.83 68.16 66.26 68.68 66.08Z" fill="#021A1C"/>
<path d="M69 51.89C70.47 51.89 71.54 53.62 71.54 56C71.54 58.38 70.47 60.11 69 60.11C67.53 60.11 66.4601 58.38 66.4601 56C66.4601 53.62 67.53 51.89 69 51.89ZM69 58.06C69.21 57.83 69.54 57.12 69.54 56C69.54 54.88 69.21 54.17 69 53.94C68.8 54.17 68.4601 54.88 68.4601 56C68.4601 57.12 68.79 57.83 69 58.06Z" fill="#021A1C"/>
<path d="M81.51 51.89C82.98 51.89 84.05 53.62 84.05 56C84.05 58.38 82.98 60.11 81.51 60.11C80.04 60.11 78.97 58.38 78.97 56C78.97 53.62 80.04 51.89 81.51 51.89ZM81.51 58.06C81.72 57.83 82.05 57.12 82.05 56C82.05 54.88 81.72 54.17 81.51 53.94C81.31 54.17 80.97 54.88 80.97 56C80.97 57.12 81.3 57.83 81.51 58.06Z" fill="#021A1C"/>
<path d="M42.6 37.46C43.75 36.7 45.12 37.33 46.72 38.06C48.91 39.06 51.91 40.43 55.83 39.25C57.82 38.66 60.99 35.08 63.77 31.92C65.92 29.49 67.95 27.19 69.64 25.95C70.94 24.99 72.34 24.15 73.79 23.47C77.3 21.74 81.39 20.66 85.93 20.26C90.11 19.89 94.6 20.15 100.06 21.1C104.04 21.79 107.07 22.05 109.92 19.05C110.3 18.65 110.93 18.64 111.33 19.02C111.73 19.4 111.75 20.03 111.37 20.43C107.85 24.13 104.01 23.81 99.72 23.07C94.44 22.15 90.11 21.89 86.11 22.25C81.81 22.64 77.96 23.65 74.66 25.27C73.32 25.91 72.03 26.68 70.82 27.56C70.22 28.01 69.54 28.63 68.81 29.37C70.3 29.24 71.62 29.56 73.05 29.9C76.38 30.72 80.54 31.73 90.18 27.49C95.45 25.17 102.49 25.7 111.09 29.05C111.61 29.25 111.86 29.83 111.66 30.35C111.46 30.86 110.88 31.11 110.37 30.91C108.76 30.29 107.21 29.77 105.73 29.35C103.37 43.24 91.59 43.8 86.62 43.4C86.1 43.36 85.64 43.31 85.23 43.26C86.78 45.51 87.8 48.07 88.21 50.78C88.23 50.86 88.24 50.93 88.24 51.01C88.36 51.85 88.44 52.7 88.44 53.56V63.7C88.44 70.75 83.82 76.73 77.44 78.79V85.17L79.09 85.51C79.39 85.58 79.65 85.78 79.79 86.06C79.92 86.35 79.92 86.68 79.77 86.96L73.08 99.72C72.5 100.81 71.43 101.48 70.19 101.51H70.11C68.91 101.51 67.83 100.9 67.22 99.86L59.83 87.22C59.67 86.94 59.65 86.61 59.77 86.31C59.9 86.02 60.16 85.81 60.48 85.74L63.01 85.18V77.2C59.52 75.36 56.59 72.54 54.62 68.99C54.09 69.16 53.55 69.27 53.01 69.27C49.48 69.27 46.61 65.65 46.61 61.2C46.61 58.28 47.89 55.59 49.85 54.19C47.75 53.91 46 53.23 44.62 52.15C42.4 50.42 41.23 47.7 41.15 44.09C41.06 40.01 41.45 38.21 42.6 37.46ZM62.25 87.4L68.95 98.85C69.2 99.27 69.61 99.51 70.15 99.51C70.64 99.5 71.08 99.23 71.31 98.79L77.38 87.2L76.24 86.97C75.78 86.87 75.44 86.46 75.44 85.99V79.29C74.51 79.46 73.55 79.56 72.57 79.56C69.93 79.56 67.37 79.06 65.01 78.12V85.99C65.01 86.46 64.68 86.87 64.23 86.97L62.25 87.4ZM54.01 59.01C54.01 61.56 54.52 64.02 55.52 66.33C58.45 73.15 65.15 77.56 72.57 77.56C79.99 77.56 86.44 71.35 86.44 63.7V53.56C86.44 52.82 86.38 52.1 86.28 51.39C85.69 50.52 84.82 49.88 83.81 49.57C82.62 49.23 81.38 49.36 80.29 49.95C79.81 50.22 79.2 50.04 78.93 49.55C78.67 49.07 78.85 48.46 79.33 48.2C80.88 47.35 82.68 47.15 84.38 47.66C84.76 47.77 85.13 47.92 85.49 48.1C84.77 46.09 83.66 44.22 82.18 42.62C81.44 42.38 80.66 42.08 79.83 41.76C76.95 40.62 73.68 39.33 71.46 40.89C70.4 41.63 69.91 43 69.38 44.45C69.19 44.98 68.99 45.52 68.77 46.04C68.55 46.54 68.28 47.03 67.98 47.5C69.47 47.22 70.99 47.46 72.33 48.19C72.82 48.46 72.99 49.06 72.73 49.55C72.47 50.03 71.86 50.21 71.37 49.95C70.29 49.36 69.04 49.23 67.85 49.58C66.07 50.11 64.78 51.64 64.57 53.5C64.51 54.01 64.08 54.38 63.58 54.38H63.46C62.91 54.32 62.52 53.82 62.58 53.27C62.63 52.85 62.73 52.44 62.85 52.04C61.62 52.67 60.27 53.18 58.8 53.52C57.08 53.91 55.49 54.15 54.01 54.26V59.01ZM48.61 61.2C48.61 64.55 50.58 67.27 53.01 67.27C53.24 67.27 53.48 67.24 53.71 67.19C53.7 67.16 53.69 67.14 53.68 67.12C52.57 64.57 52.01 61.84 52.01 59.01V55.33C51.87 55.37 51.73 55.41 51.6 55.48C49.81 56.32 48.61 58.62 48.61 61.2ZM43.15 44.04C43.22 47.03 44.12 49.23 45.85 50.58C48.98 53.02 54.38 52.47 58.36 51.57C62.46 50.64 65.58 48.33 66.94 45.23C67.14 44.76 67.32 44.26 67.5 43.76C68.11 42.09 68.74 40.36 70.31 39.26C73.41 37.07 77.37 38.64 80.56 39.9C81.46 40.25 82.31 40.59 83.05 40.81H83.06C83.33 40.88 91.63 43.05 97.68 39.22C100.94 37.16 102.99 33.69 103.78 28.91C103.78 28.89 103.78 28.87 103.8 28.85C98.68 27.68 94.38 27.83 90.98 29.32C85.14 31.89 81.09 32.63 78.06 32.63C75.77 32.63 74.05 32.21 72.57 31.85C70.23 31.28 68.67 30.91 66.07 32.34C65.8 32.64 65.54 32.94 65.27 33.24C62.02 36.93 58.95 40.41 56.4 41.17C51.77 42.56 48.23 40.94 45.89 39.87C45.15 39.54 43.93 38.98 43.7 39.13C43.59 39.2 43.06 39.77 43.15 44.04Z" fill="#021A1C"/>
<path d="M43.15 44.04C43.22 47.03 44.1201 49.23 45.8501 50.58C48.9801 53.02 54.38 52.47 58.36 51.57C62.46 50.64 65.58 48.33 66.94 45.23C67.14 44.76 67.32 44.26 67.5 43.76C68.11 42.09 68.74 40.36 70.31 39.26C73.41 37.07 77.37 38.64 80.56 39.9C81.46 40.25 82.31 40.59 83.05 40.81H83.06C83.33 40.88 91.63 43.05 97.68 39.22C100.94 37.16 102.99 33.69 103.78 28.91C103.78 28.89 103.78 28.87 103.8 28.85C98.68 27.68 94.38 27.83 90.98 29.32C85.14 31.89 81.09 32.63 78.06 32.63C75.77 32.63 74.0501 32.21 72.5701 31.85C70.2301 31.28 68.6701 30.91 66.0701 32.34C65.8001 32.64 65.5401 32.94 65.2701 33.24C62.0201 36.93 58.95 40.41 56.4 41.17C51.77 42.56 48.23 40.94 45.89 39.87C45.15 39.54 43.93 38.98 43.7 39.13C43.59 39.2 43.06 39.77 43.15 44.04Z" fill="#021A1C"/>
<path d="M88.45 114.06C88.45 113.99 88.47 113.92 88.49 113.85C88.5 113.8 88.51 113.74 88.54 113.68C88.56 113.63 88.6 113.58 88.64 113.53C88.68 113.48 88.72 113.42 88.77 113.37C88.78 113.36 88.79 113.34 88.8 113.33C88.84 113.3 88.88 113.3 88.92 113.27C88.98 113.23 89.04 113.2 89.1 113.17C89.17 113.15 89.24 113.14 89.31 113.13C89.35 113.13 89.39 113.11 89.44 113.11H101.27C101.27 113.11 101.36 113.13 101.4 113.13C101.47 113.14 101.54 113.15 101.6 113.17C101.67 113.2 101.73 113.23 101.79 113.27C101.83 113.29 101.87 113.3 101.9 113.33C101.92 113.33 101.92 113.36 101.93 113.37C101.99 113.42 102.03 113.48 102.07 113.53C102.1 113.58 102.14 113.63 102.17 113.68C102.19 113.74 102.2 113.79 102.22 113.85C102.24 113.92 102.26 113.99 102.26 114.06C102.26 114.08 102.27 114.09 102.27 114.11V128.6C102.27 129.15 101.82 129.6 101.27 129.6H89.44C88.88 129.6 88.44 129.15 88.44 128.6V114.11C88.44 114.11 88.45 114.08 88.45 114.06ZM91.54 115.11L95.35 119.77L99.16 115.11H91.54ZM90.44 127.6H100.27V116.91L96.13 121.98C95.94 122.22 95.65 122.35 95.35 122.35C95.05 122.35 94.77 122.22 94.58 121.98L90.44 116.91V127.6Z" fill="#021A1C"/>
<path d="M91.54 115.11L95.35 119.77L99.16 115.11H91.54Z" fill="#7525F5"/>
<path d="M90.44 116.91V127.6H100.27V116.91L96.13 121.98C95.94 122.22 95.65 122.35 95.35 122.35C95.05 122.35 94.77 122.22 94.58 121.98L90.44 116.91Z" fill="#7525F5"/>
<path d="M183.82 40.8C188.08 42.8 190.83 47.13 190.83 51.83C190.83 52.38 191.28 52.83 191.83 52.83C192.38 52.83 192.83 52.38 192.83 51.83C192.83 46.36 189.63 41.32 184.68 38.99C184.17 38.75 183.58 38.97 183.35 39.47C183.11 39.97 183.32 40.56 183.82 40.8Z" fill="#021A1C"/>
</g>
<defs>
<clipPath id="clip0_28_222">
<rect width="220.93" height="173.05" fill="white" transform="matrix(-1 0 0 1 221 0)"/>
</clipPath>
</defs>
</svg>
