<svg width="26" height="26" viewBox="0 0 26 26" fill="none" xmlns="http://www.w3.org/2000/svg">
<path d="M12.4783 1H15.6087M12.4783 1H3.08696C1.93436 1 1 1.93436 1 3.08696C1 4.23955 1.93436 5.17391 3.08696 5.17391H11.9565C12.2447 5.17391 12.4783 4.94032 12.4783 4.65217V1ZM15.6087 1H18.2174C18.5055 1 18.7391 1.23359 18.7391 1.52174V4.65217C18.7391 4.94032 18.5055 5.17391 18.2174 5.17391H16.1304C15.8423 5.17391 15.6087 4.94032 15.6087 4.65217V1ZM12.4783 17.6957H15.6087M12.4783 17.6957V14.0435C12.4783 13.7553 12.2447 13.5217 11.9565 13.5217H3.08696C1.93436 13.5217 1 14.4561 1 15.6087C1 16.7613 1.93436 17.6957 3.08696 17.6957H12.4783ZM15.6087 17.6957H18.2174C18.5055 17.6957 18.7391 17.9292 18.7391 18.2174V24.4783C18.7391 24.7664 18.5055 25 18.2174 25H16.1304C15.8423 25 15.6087 24.7664 15.6087 24.4783V17.6957ZM13.5217 21.8696H15.6087M18.7391 21.8696H21.8696M21.8696 21.8696C21.8696 22.734 22.5703 23.4348 23.4348 23.4348C24.2992 23.4348 25 22.734 25 21.8696C25 21.0051 24.2992 20.3043 23.4348 20.3043C22.5703 20.3043 21.8696 21.0051 21.8696 21.8696ZM15.6087 8.30435H18.7391M15.6087 11.4348H18.7391M15.6087 14.5652H18.7391" stroke="white" stroke-width="1.5" stroke-linecap="round" stroke-linejoin="round"/>
</svg>
