<svg width="26" height="26" viewBox="0 0 26 26" fill="none" xmlns="http://www.w3.org/2000/svg">
<path d="M9.34797 17.6955H11.4349C12.5875 17.6955 13.5218 18.6298 13.5218 19.7824C13.5218 22.9796 8.79493 20.8259 8.33998 24.4113C8.32068 24.5608 8.367 24.7114 8.46701 24.8242C8.56703 24.937 8.71095 25.001 8.86171 24.9998H24.4459C24.5969 25.0011 24.741 24.9369 24.8411 24.8238C24.9411 24.7108 24.9873 24.5599 24.9677 24.4102C24.5002 20.8948 19.7827 22.9243 19.7827 19.7824C19.7827 18.6298 20.717 17.6955 21.8696 17.6955H23.9565C24.5328 17.6955 25 17.2283 25 16.652V12.4782C25 11.9019 24.5328 11.4347 23.9565 11.4347H9.34797M9.34797 17.6955V11.4347M9.34797 17.6955H7.15669C4.18112 17.6961 1.61621 15.6023 1.02109 12.6868C0.958416 12.3798 1.03706 12.0608 1.23528 11.8181C1.4335 11.5754 1.73031 11.4346 2.04369 11.4347H9.34797M1.00022 5.17387H13.5218M14.5653 1H18.7392C18.7392 1 19.7827 1 19.7827 2.04347V8.30428C19.7827 8.30428 19.7827 9.34775 18.7392 9.34775H14.5653C14.5653 9.34775 13.5218 9.34775 13.5218 8.30428V2.04347C13.5218 2.04347 13.5218 1 14.5653 1Z" stroke="white" stroke-width="1.5" stroke-linecap="round" stroke-linejoin="round"/>
</svg>
