<svg width="26" height="26" viewBox="0 0 26 26" fill="none" xmlns="http://www.w3.org/2000/svg">
<path d="M13 15.6087V8.30435M19.815 15.6087V13.5217M6.21739 9.34783V4.13043M6.21739 15.6087V11.4348M19.815 11.4348V4.13043M13 6.21739V4.13043M2.04348 1H23.9565C23.9565 1 25 1 25 2.04348V23.9565C25 23.9565 25 25 23.9565 25H2.04348C2.04348 25 1 25 1 23.9565V2.04348C1 2.04348 1 1 2.04348 1ZM17.728 12.4783C17.728 11.902 18.1952 11.4348 18.7715 11.4348H20.8584C21.4347 11.4348 21.9019 11.902 21.9019 12.4783C21.9019 13.0546 21.4347 13.5217 20.8584 13.5217H18.7715C18.1952 13.5217 17.728 13.0546 17.728 12.4783ZM10.913 7.26087C10.913 6.68457 11.3802 6.21739 11.9565 6.21739H14.0435C14.6198 6.21739 15.087 6.68457 15.087 7.26087C15.087 7.83717 14.6198 8.30435 14.0435 8.30435H11.9565C11.3802 8.30435 10.913 7.83717 10.913 7.26087ZM4.13043 10.3913C4.13043 9.81501 4.59762 9.34783 5.17391 9.34783H7.26087C7.83717 9.34783 8.30435 9.81501 8.30435 10.3913C8.30435 10.9676 7.83717 11.4348 7.26087 11.4348H5.17391C4.59762 11.4348 4.13043 10.9676 4.13043 10.3913ZM18.2612 20.3043C18.2612 21.1688 18.962 21.8696 19.8264 21.8696C20.6909 21.8696 21.3917 21.1688 21.3917 20.3043C21.3917 19.4399 20.6909 18.7391 19.8264 18.7391C18.962 18.7391 18.2612 19.4399 18.2612 20.3043ZM11.4348 20.3043C11.4348 21.1688 12.1356 21.8696 13 21.8696C13.8644 21.8696 14.5652 21.1688 14.5652 20.3043C14.5652 19.4399 13.8644 18.7391 13 18.7391C12.1356 18.7391 11.4348 19.4399 11.4348 20.3043ZM4.65217 20.3043C4.65217 21.1688 5.35295 21.8696 6.21739 21.8696C7.08184 21.8696 7.78261 21.1688 7.78261 20.3043C7.78261 19.4399 7.08184 18.7391 6.21739 18.7391C5.35295 18.7391 4.65217 19.4399 4.65217 20.3043Z" stroke="white" stroke-width="1.5" stroke-linecap="round" stroke-linejoin="round"/>
</svg>
