<svg width="26" height="26" viewBox="0 0 26 26" fill="none" xmlns="http://www.w3.org/2000/svg">
<path d="M4.10583 14.5668L14.0562 7.23759M4.10583 14.5668L16.6748 20.8491M4.10583 14.5668L5.18466 3.13321L14.0562 7.23759M4.10583 14.5668L7.28996 24.943L16.6748 20.8491M4.10583 14.5668H1.01596M14.0562 7.23759L16.6748 20.8491M14.0562 7.23759L24.9912 10.9022L16.6748 20.8491M14.0562 7.23759L17.1566 1.02866M16.6748 20.8491L21.2834 23.4143M7.07 24.744C7.17429 24.9241 7.37701 25.0233 7.58324 24.9953L21.0425 23.4666C21.2505 23.4383 21.4226 23.2908 21.4824 23.0897L24.9807 11.1221C25.0258 10.959 24.9908 10.7842 24.8865 10.6509L17.387 1.19619C17.2702 1.04749 17.081 0.975068 16.8947 1.00772L5.45699 2.99709C5.26936 3.02474 5.11227 3.15359 5.0485 3.33214L1.04739 14.3365C0.984204 14.4763 0.984204 14.6365 1.04739 14.7762L7.07 24.744Z" stroke="white" stroke-width="1.5" stroke-linecap="round" stroke-linejoin="round"/>
</svg>
