<svg width="16" height="26" viewBox="0 0 16 26" fill="none" xmlns="http://www.w3.org/2000/svg">
<path d="M6.21739 10.913L4.13043 13L6.21739 15.087M9.34783 10.913L11.4348 13L9.34783 15.087M14.5652 20.8261H1M14.5652 5.17391H1M6.21739 3.08696H9.34783M7.78261 22.6522C7.92668 22.6522 8.04348 22.769 8.04348 22.913C8.04348 23.0571 7.92668 23.1739 7.78261 23.1739C7.63853 23.1739 7.52174 23.0571 7.52174 22.913C7.52174 22.769 7.63853 22.6522 7.78261 22.6522ZM3.08696 1H12.4783C12.4783 1 14.5652 1 14.5652 3.08696V22.913C14.5652 22.913 14.5652 25 12.4783 25H3.08696C3.08696 25 1 25 1 22.913V3.08696C1 3.08696 1 1 3.08696 1Z" stroke="white" stroke-width="1.5" stroke-linecap="round" stroke-linejoin="round"/>
</svg>
