<svg width="26" height="26" viewBox="0 0 26 26" fill="none" xmlns="http://www.w3.org/2000/svg">
<path d="M25.135 23.3674L25.135 23.3674C25.6228 23.8563 25.6214 24.6476 25.1326 25.135C24.8884 25.379 24.5675 25.5 24.25 25.5C23.931 25.5 23.6091 25.3778 23.3649 25.1326C23.3649 25.1326 23.3649 25.1326 23.3648 25.1326C23.3647 25.1324 23.3646 25.1323 23.3645 25.1322L15.7828 17.5323C14.1301 18.8171 12.1127 19.5195 9.98656 19.5195C7.45169 19.5195 5.06662 18.529 3.274 16.7335L3.27386 16.7334C-0.424615 13.026 -0.424619 6.9943 3.27384 3.28689L25.135 23.3674ZM25.135 23.3674L17.5416 15.7564M25.135 23.3674L17.5416 15.7564M14.9284 5.05213L14.9284 5.05211C13.6073 3.72778 11.8541 3 9.98656 3C8.119 3 6.36578 3.72778 5.04474 5.05211C2.31844 7.7857 2.31846 12.2345 5.04474 14.9681L14.9284 5.05213ZM14.9284 5.05213C17.6554 7.78571 17.6554 12.2345 14.9284 14.9681L14.9284 14.9681M14.9284 5.05213L14.9284 14.9681M14.9284 14.9681C13.6073 16.2925 11.8541 17.0203 9.98656 17.0203M14.9284 14.9681L9.98656 17.0203M17.5416 15.7564C20.3661 12.033 20.0893 6.68567 16.6978 3.28689C14.9058 1.49047 12.5207 0.5 9.98581 0.5C7.45095 0.5 5.0658 1.49047 3.27386 3.28687L17.5416 15.7564ZM9.98656 17.0203C8.11901 17.0203 6.3658 16.2925 5.04478 14.9682L9.98656 17.0203Z" stroke="white" stroke-linecap="round" stroke-linejoin="round"/>
</svg>
