<svg width="26" height="26" viewBox="0 0 26 26" fill="none" xmlns="http://www.w3.org/2000/svg">
<path d="M1 8.82609H4.648M4.648 8.82609L8.82609 11.9565M4.648 8.82609L8.82609 5.69565M1 18.7391H6.21739M6.21739 18.7391C6.21739 20.1799 7.38534 21.3478 8.82609 21.3478M6.21739 18.7391C6.21739 17.2984 7.38534 16.1304 8.82609 16.1304M17.1739 1V5.69565M18.2174 11.9565V16.6522M8.82609 1V5.69565M8.82609 5.69565H19.2609V11.9565H8.82609M8.82609 21.3478C10.2668 21.3478 11.4348 20.1799 11.4348 18.7391M8.82609 21.3478V25M11.4348 18.7391C11.4348 17.2984 10.2668 16.1304 8.82609 16.1304M11.4348 18.7391H15.8696M8.82609 16.1304V11.9565M20.0435 18.7391H25M18.2174 20.8261V25M19.2609 8.82609H25M3.08696 1H22.913C22.913 1 25 1 25 3.08696V22.913C25 22.913 25 25 22.913 25H3.08696C3.08696 25 1 25 1 22.913V3.08696C1 3.08696 1 1 3.08696 1ZM15.8696 16.6522H20.0435V20.8261H15.8696V16.6522Z" stroke="white" stroke-width="1.5" stroke-linecap="round" stroke-linejoin="round"/>
</svg>
