<svg width="215" height="31" viewBox="0 0 215 31" fill="none" xmlns="http://www.w3.org/2000/svg">
<path d="M7.73343 11.2733L7.6418 11.1817L4.18083 7.69165C4.11259 7.62214 4.0159 7.58802 3.91922 7.60002C3.82191 7.61203 3.73597 7.66764 3.68605 7.75105C2.76725 9.27838 2.24213 11.0123 2.14924 12.7975C2.14735 12.8316 2.14482 12.8657 2.14292 12.8999L2.14103 12.9656C2.1404 12.9826 2.13976 12.9997 2.13913 13.0168L2.13787 13.0395V13.0414C2.13724 13.0496 2.13724 13.0578 2.13724 13.0641C2.1366 13.0724 2.1366 13.0806 2.1366 13.0831L2.13471 13.1842C2.13344 13.2379 2.13281 13.2916 2.13281 13.346V13.3908C2.13281 13.4446 2.13344 13.4983 2.13408 13.552C2.13471 13.6133 2.13597 13.6746 2.1385 13.7352C2.13913 13.7378 2.13976 13.7403 2.13976 13.7428C2.20043 15.5014 2.68447 17.2253 3.55019 18.7494C4.44876 20.3324 5.74102 21.6783 7.2873 22.642C7.33849 22.6736 7.39662 22.69 7.45413 22.69C7.50721 22.69 7.56029 22.6768 7.60831 22.6496C7.70879 22.594 7.77071 22.4878 7.77008 22.3728L7.73343 11.2733ZM2.76472 13.3662C2.76472 13.2626 2.76662 13.1596 2.76978 13.0566L2.77167 13.013C2.77294 12.9605 2.7761 12.9081 2.77862 12.8563C2.78305 12.7773 2.78684 12.6976 2.79316 12.6187C2.79379 12.6092 2.79442 12.5997 2.79505 12.5902C2.90817 11.1356 3.33155 9.71376 4.03107 8.43794L7.10215 11.5343L7.13628 21.7845C4.38873 19.8553 2.76472 16.7494 2.76472 13.3662Z" fill="white"/>
<path d="M7.1362 21.7846C4.38866 19.8553 2.76465 16.7495 2.76465 13.3663C2.76465 13.2626 2.76654 13.1596 2.7697 13.0566L2.7716 13.013C2.77286 12.9606 2.77602 12.9081 2.77855 12.8563C2.78297 12.7773 2.78677 12.6977 2.79308 12.6187C2.79372 12.6092 2.79435 12.5997 2.79498 12.5903C2.90809 11.1356 3.33147 9.71381 4.031 8.43799L7.10208 11.5343L7.1362 21.7846Z" fill="white"/>
<path d="M29.6846 25.6075L22.7083 18.6312C23.5816 17.0312 24.0435 15.2252 24.0435 13.3908C24.0435 11.5564 23.5386 9.57912 22.5832 7.92478C21.7232 6.436 20.5162 5.16334 19.0786 4.22369L20.7298 2.5725C20.9428 2.70584 21.1943 2.78293 21.4641 2.78293C22.2312 2.78293 22.8549 2.1586 22.8549 1.39147C22.8549 0.624327 22.2312 0 21.4641 0C20.6969 0 20.0726 0.624327 20.0726 1.39147C20.0726 1.66129 20.1497 1.91279 20.283 2.12574L18.5238 3.88498C17.0496 3.04201 15.387 2.55292 13.6891 2.46255C13.6208 2.45876 13.5519 2.4556 13.4837 2.45307C13.4698 2.45244 13.4565 2.45118 13.4433 2.45118C13.411 2.44928 13.3794 2.44865 13.3485 2.44802H13.3377C13.3093 2.44739 13.2809 2.44676 13.253 2.44676C13.2341 2.44612 13.2158 2.44612 13.1974 2.44549C13.1646 2.44486 13.1305 2.44486 13.097 2.44486H12.9459C12.9384 2.44549 12.9308 2.44612 12.9213 2.44612L12.8145 2.44802C12.8057 2.44865 12.7962 2.44928 12.7867 2.44928C12.685 2.45181 12.5826 2.45623 12.4809 2.46192C12.4777 2.46192 12.4752 2.46192 12.4726 2.46255C10.7709 2.55544 9.11088 3.04391 7.6379 3.89067C7.55259 3.93996 7.49508 4.0259 7.48245 4.12321C7.46981 4.2161 7.50014 4.30899 7.5627 4.37724C7.56459 4.37977 7.56649 4.38166 7.56839 4.38356C7.56965 4.38545 7.57091 4.38672 7.57218 4.38798L14.4486 11.2644L21.8319 18.6489L21.9191 18.7355C21.5652 19.3187 21.1551 19.8647 20.6951 20.3652C19.2094 18.9074 8.48908 8.16807 2.52827 2.1921C2.68814 1.96587 2.7823 1.68973 2.7823 1.39147C2.7823 0.624327 2.1586 0 1.39147 0C0.624327 0 0 0.624327 0 1.39147C0 2.1586 0.624327 2.78293 1.39147 2.78293C1.63159 2.78293 1.85845 2.72164 2.0556 2.61358C2.86887 3.42874 5.90773 6.47455 9.28844 9.86095V27.9955C8.70646 28.1623 8.27928 28.6982 8.27928 29.3333C8.27928 30.1004 8.90361 30.7241 9.67075 30.7241C10.4379 30.7241 11.0622 30.1004 11.0622 29.3333C11.0622 28.6508 10.5687 28.0827 9.92035 27.9645V10.4935C14.3823 14.9617 19.2265 19.8085 20.254 20.817C19.7529 21.2998 19.2031 21.7326 18.6135 22.1067L18.1889 21.6821L18.1731 21.6663L11.5507 15.0445L11.5532 15.8098L11.581 23.9077C11.5816 24.0688 11.703 24.2034 11.8628 24.2211C12.2635 24.2647 12.6704 24.2875 13.0717 24.2875C14.9706 24.2875 16.8316 23.7933 18.4707 22.8593L25.4439 29.8476C26.0284 30.4321 26.7961 30.7241 27.5645 30.7241C28.3329 30.7241 29.1001 30.4321 29.6846 29.8476C30.8536 28.6786 30.8536 26.7765 29.6846 25.6075ZM21.4641 0.63191C21.8824 0.63191 22.223 0.973141 22.223 1.39147C22.223 1.80979 21.8824 2.15102 21.4641 2.15102C21.0458 2.15102 20.7045 1.81042 20.7045 1.39147C20.7045 0.972509 21.0451 0.63191 21.4641 0.63191ZM1.91911 1.93617C1.90079 1.94818 1.88372 1.96208 1.86793 1.97788C1.86413 1.98104 1.86224 1.98546 1.85845 1.98862C1.72954 2.09036 1.56777 2.15102 1.39147 2.15102C0.972509 2.15102 0.63191 1.81042 0.63191 1.39147C0.63191 0.972509 0.972509 0.63191 1.39147 0.63191C1.81042 0.63191 2.15039 0.973141 2.15039 1.39147C2.15039 1.60505 2.06129 1.79842 1.91911 1.93617ZM10.4303 29.3333C10.4303 29.7516 10.0897 30.0922 9.67075 30.0922C9.25179 30.0922 8.91119 29.7516 8.91119 29.3333C8.91119 28.9149 9.25179 28.5737 9.67075 28.5737C10.0897 28.5737 10.4303 28.9143 10.4303 29.3333ZM12.2123 23.6195L12.1876 16.575L17.296 21.6827L17.7257 22.1124L18.0082 22.3962C16.2527 23.3567 14.2382 23.7864 12.2123 23.6195ZM8.32415 4.24643C9.70614 3.52479 11.2505 3.12227 12.8151 3.08056C12.8897 3.07867 12.9649 3.0774 13.0395 3.07677H13.102C13.1387 3.07677 13.1753 3.0774 13.2113 3.07803C13.2467 3.07803 13.2821 3.07867 13.3175 3.07993H13.3226C13.3592 3.08056 13.3959 3.08182 13.4331 3.08309C13.5184 3.08562 13.6044 3.09004 13.6897 3.09509C13.7365 3.09762 13.7839 3.10078 13.8306 3.10394C13.8559 3.10584 13.8812 3.10836 13.9058 3.11026C14.6616 3.17029 15.4041 3.3131 16.1244 3.5368L11.8692 7.79145L8.32415 4.24643ZM12.3159 8.23884L16.793 3.76176C17.2278 3.92858 17.6511 4.12384 18.06 4.3488L13.2429 9.16585L12.3159 8.23884ZM13.6897 9.61261L18.6211 4.68119C19.018 4.93269 19.3965 5.21073 19.7535 5.51278L14.6717 10.5946L13.6897 9.61261ZM15.3061 11.229L15.1184 11.0414L20.2078 5.95259C22.2161 7.88813 23.3617 10.5725 23.3617 13.3662C23.3617 15.0249 22.9611 16.6603 22.199 18.1213L15.3061 11.229ZM29.2378 29.4009C28.3146 30.3235 26.8138 30.3235 25.8912 29.4009L19.0698 22.5649C20.4018 21.6954 21.5349 20.5415 22.3785 19.1949L29.2378 26.0543C30.1604 26.9769 30.1604 28.4776 29.2378 29.4009Z" fill="white"/>
<path d="M29.2201 26.0542L22.3607 19.1948C21.5171 20.5414 20.3841 21.6953 19.052 22.5648L25.8735 29.4008C26.7961 30.3234 28.2968 30.3234 29.2201 29.4008C30.1427 28.4776 30.1427 26.9768 29.2201 26.0542ZM27.543 29.1354C26.7758 29.1354 26.1515 28.5111 26.1515 27.7439C26.1515 26.9768 26.7758 26.3525 27.543 26.3525C28.3101 26.3525 28.9344 26.9768 28.9344 27.7439C28.9344 28.5111 28.3101 29.1354 27.543 29.1354Z" fill="white"/>
<path d="M10.4127 29.3333C10.4127 29.7516 10.0721 30.0922 9.65311 30.0922C9.23415 30.0922 8.89355 29.7516 8.89355 29.3333C8.89355 28.915 9.23415 28.5737 9.65311 28.5737C10.0721 28.5737 10.4127 28.9143 10.4127 29.3333Z" fill="#7525F5"/>
<path d="M2.13274 1.39139C2.13274 1.60498 2.04364 1.79834 1.90146 1.9361C1.88313 1.9481 1.86607 1.96201 1.85027 1.9778C1.84648 1.98096 1.84459 1.98539 1.84079 1.98855C1.71189 2.09028 1.55012 2.15095 1.37381 2.15095C0.954857 2.15095 0.614258 1.81035 0.614258 1.39139C0.614258 0.972435 0.954857 0.631836 1.37381 0.631836C1.79277 0.631836 2.13274 0.973067 2.13274 1.39139Z" fill="#7525F5"/>
<path d="M22.2052 1.39139C22.2052 1.81035 21.8646 2.15095 21.4463 2.15095C21.028 2.15095 20.6868 1.81035 20.6868 1.39139C20.6868 0.972435 21.0274 0.631836 21.4463 0.631836C21.8653 0.631836 22.2052 0.973067 22.2052 1.39139Z" fill="#7525F5"/>
<path d="M17.9904 22.3964C16.235 23.3569 14.2205 23.7866 12.1946 23.6197L12.1699 16.5752L17.2783 21.6829L17.708 22.1126L17.9904 22.3964Z" fill="white"/>
<path d="M19.7359 5.51275L14.6541 10.5946L13.6721 9.61258L18.6035 4.68115C19.0004 4.93265 19.3789 5.21069 19.7359 5.51275Z" fill="#7525F5"/>
<path d="M18.0422 4.34876L13.2251 9.16581L12.2981 8.2388L16.7752 3.76172C17.2099 3.92854 17.6333 4.1238 18.0422 4.34876Z" fill="#7525F5"/>
<path d="M16.1067 3.53669L11.8514 7.79134L8.3064 4.24633C9.68838 3.52468 11.2328 3.12216 12.7974 3.08045C12.8719 3.07856 12.9471 3.07729 13.0217 3.07666H13.0843C13.1209 3.07666 13.1576 3.07729 13.1936 3.07792C13.229 3.07792 13.2644 3.07856 13.2997 3.07982H13.3048C13.3415 3.08045 13.3781 3.08172 13.4154 3.08298C13.5007 3.08551 13.5866 3.08993 13.6719 3.09499C13.7187 3.09751 13.7661 3.10067 13.8129 3.10383C13.8381 3.10573 13.8634 3.10826 13.8881 3.11015C14.6438 3.17018 15.3863 3.31299 16.1067 3.53669Z" fill="white"/>
<path d="M23.3441 13.3662C23.3441 15.025 22.9435 16.6603 22.1814 18.1213L15.2885 11.2291L15.1008 11.0414L20.1902 5.95264C22.1984 7.88818 23.3441 10.5725 23.3441 13.3662Z" fill="white"/>
<path d="M27.5431 26.3525C26.7759 26.3525 26.1516 26.9769 26.1516 27.744C26.1516 28.5111 26.7759 29.1355 27.5431 29.1355C28.3102 29.1355 28.9345 28.5111 28.9345 27.744C28.9345 26.9769 28.3102 26.3525 27.5431 26.3525ZM27.5431 28.5036C27.1241 28.5036 26.7835 28.163 26.7835 27.744C26.7835 27.325 27.1241 26.9844 27.5431 26.9844C27.962 26.9844 28.3026 27.325 28.3026 27.744C28.3026 28.163 27.9614 28.5036 27.5431 28.5036Z" fill="white"/>
<path d="M27.543 28.5035C27.9625 28.5035 28.3026 28.1634 28.3026 27.7439C28.3026 27.3244 27.9625 26.9844 27.543 26.9844C27.1235 26.9844 26.7834 27.3244 26.7834 27.7439C26.7834 28.1634 27.1235 28.5035 27.543 28.5035Z" fill="#7525F5"/>
<path d="M61.0036 24.3684H57.0425L52.5018 11.2477L47.9611 24.3684H44L50.7168 6.00293H54.2868L61.0036 24.3684Z" fill="white"/>
<path d="M64.5984 19.3016C64.9931 20.5354 65.9638 21.3746 67.4074 21.3746C68.4315 21.3746 69.2458 20.955 69.7436 20.2474L72.6309 21.6626C71.5819 23.4191 69.7187 24.5748 67.411 24.5748C63.7628 24.5748 61.0071 21.6875 61.0071 18.0393C61.0071 14.3911 63.6312 11.5322 67.2794 11.5322C70.9277 11.5322 73.1322 14.3911 73.1322 18.0393C73.1322 18.4837 73.1073 18.9069 73.0291 19.298H64.6055L64.5984 19.3016ZM64.5735 16.8623H69.8218C69.5338 15.6036 68.7444 14.7111 67.2759 14.7111C65.8074 14.7111 64.89 15.6036 64.5735 16.8623Z" fill="white"/>
<path d="M82.1286 11.614L81.4744 15.1022C81.1579 14.8924 80.7668 14.7893 80.2939 14.7893C79.06 14.7893 78.196 15.6285 78.196 17.4917V24.365H74.7078V11.7171H78.196V12.8194C78.9569 12.0336 79.9525 11.5322 81.133 11.5322C81.4744 11.5322 81.8157 11.5571 82.1286 11.6105V11.614Z" fill="white"/>
<path d="M95.3272 18.0427C95.3272 21.6909 92.5715 24.5782 88.9233 24.5782C85.2751 24.5782 82.5229 21.6909 82.5229 18.0427C82.5229 14.3945 85.2787 11.5356 88.9233 11.5356C92.568 11.5356 95.3272 14.3945 95.3272 18.0427ZM91.9173 18.0427C91.9173 16.1546 90.815 14.7109 88.9269 14.7109C87.0388 14.7109 85.9365 16.1546 85.9365 18.0427C85.9365 19.9308 87.0388 21.3744 88.9269 21.3744C90.815 21.3744 91.9173 19.9308 91.9173 18.0427Z" fill="white"/>
<path d="M110.703 18.7539C110.703 21.9825 108.605 24.3684 104.562 24.3684H97.5569V13.1393H104.195C105.561 13.1393 106.137 12.2468 106.137 11.2512C106.137 10.2556 105.561 9.36313 104.195 9.36313H97.5569V6.00293H104.117C107.634 6.00293 109.707 8.38885 109.707 11.2512C109.707 12.5882 109.053 13.7972 108.053 14.6896C109.654 15.4755 110.703 16.8409 110.703 18.7574V18.7539ZM107.054 18.7539C107.054 17.4418 106.187 16.4711 104.562 16.4711H101.045V21.0367H104.562C106.19 21.0367 107.054 20.066 107.054 18.7539Z" fill="white"/>
<path d="M123.034 16.4709V24.3683H119.571V23.1877C119.098 23.6607 117.839 24.578 115.688 24.578C113.22 24.578 111.858 23.2908 111.751 21.3778C111.751 18.6221 113.64 17.6514 116.317 17.0754C118.443 16.6025 119.336 16.6025 119.492 15.8949C119.677 15.1339 118.863 14.3481 117.629 14.3979C116.552 14.4228 115.741 14.9241 115.531 15.8949L112.619 15.2655C112.854 13.6121 114.717 11.5391 117.867 11.5391C120.623 11.5391 123.037 12.7978 123.037 16.4709H123.034ZM119.571 18.807C119.571 18.807 118.415 19.0417 116.762 19.4613C115.474 19.8026 115.108 20.6418 115.346 21.2712C115.556 21.8472 116.342 22.0072 117.131 21.8757C118.497 21.6659 119.467 20.5885 119.571 19.1982V18.8035V18.807Z" fill="white"/>
<path d="M134.661 20.7202C134.583 23.003 132.535 24.5497 129.623 24.5497C126.974 24.5497 124.638 23.0812 124.218 21.5309L126.764 20.1655C127.027 20.8198 128.129 21.346 129.022 21.3993C129.968 21.4527 131.017 21.2144 130.988 20.5353C130.963 19.8277 130.359 19.7495 128.599 19.145C125.843 18.1743 124.638 17.2284 124.716 15.1554C124.794 13.3989 126.213 11.5605 129.491 11.5605C132.535 11.5605 133.979 13.5304 134.164 14.6825L131.486 15.4434C131.355 15.0239 130.935 14.4194 129.964 14.3412C128.627 14.238 128.286 14.8923 128.311 15.2337C128.336 15.7066 128.706 16.0195 130.697 16.6239C133.662 17.5413 134.736 18.8001 134.658 20.7166L134.661 20.7202Z" fill="white"/>
<path d="M139.198 19.3016C139.593 20.5354 140.564 21.3746 142.007 21.3746C143.031 21.3746 143.846 20.955 144.344 20.2474L147.231 21.6626C146.182 23.4191 144.319 24.5748 142.011 24.5748C138.363 24.5748 135.607 21.6875 135.607 18.0393C135.607 14.3911 138.231 11.5322 141.879 11.5322C145.528 11.5322 147.732 14.3911 147.732 18.0393C147.732 18.4837 147.707 18.9069 147.629 19.298H139.205L139.198 19.3016ZM139.173 16.8623H144.422C144.134 15.6036 143.344 14.7111 141.876 14.7111C140.407 14.7111 139.49 15.6036 139.173 16.8623Z" fill="white"/>
<path d="M159.061 18.8818C159.192 19.408 159.505 19.984 160.32 20.4819L159.114 23.8136C157.304 22.9744 156.149 21.6375 155.861 20.1156L159.061 18.8818ZM169.924 19.0382C169.924 22.0819 167.797 24.731 163.05 24.6812C162.606 24.6812 162.158 24.6563 161.713 24.603L162.894 21.1397C164.914 21.0614 166.201 20.2472 166.201 19.1982C166.201 18.071 165.386 17.623 162.318 16.7056C158.069 15.4184 156.362 13.8468 156.362 11.1444C156.362 8.73006 158.118 5.84277 162.844 5.84277C163.63 5.84277 164.391 5.9459 165.127 6.15924L162.976 9.30608H162.791C161.084 9.30608 160.064 9.9888 160.064 11.0129C160.064 11.8769 160.8 12.4565 163.633 13.3205C167.203 14.3979 169.931 15.6567 169.931 19.0418L169.924 19.0382Z" fill="white"/>
<path d="M183.937 5.99951V9.35971H170.557V5.99951H183.937ZM175.513 12.087H179.002V24.365H175.513V12.087Z" fill="white"/>
<path d="M198.868 5.99951V9.35971H185.487V5.99951H198.868ZM190.444 12.087H193.932V24.365H190.444V12.087Z" fill="white"/>
<path d="M207.131 18.0713H204.585V24.3686H201.097V14.7396H207.814C209.546 14.7396 210.648 13.6124 210.648 12.0372C210.648 10.462 209.546 9.35971 207.814 9.35971H201.097V5.99951H207.892C211.985 5.99951 214.268 8.67701 214.268 12.0336C214.268 14.5013 213.062 16.5992 210.779 17.5451L214.716 24.3686H210.779L207.131 18.0713Z" fill="white"/>
</svg>
